<svg width="40" height="40" viewBox="0 0 40 40" fill="none" xmlns="http://www.w3.org/2000/svg">
    <path d="M18.3335 6.66699H6.66683C5.78277 6.66699 4.93493 7.01818 4.30981 7.6433C3.68469 8.26842 3.3335 9.11627 3.3335 10.0003V33.3337C3.3335 34.2177 3.68469 35.0656 4.30981 35.6907C4.93493 36.3158 5.78277 36.667 6.66683 36.667H30.0002C30.8842 36.667 31.7321 36.3158 32.3572 35.6907C32.9823 35.0656 33.3335 34.2177 33.3335 33.3337V21.667"
          stroke="#e9ecef" stroke-width="2.5" stroke-linecap="round" stroke-linejoin="round"/>
    <path d="M30.8335 4.16639C31.4965 3.50335 32.3958 3.13086 33.3335 3.13086C34.2712 3.13086 35.1705 3.50335 35.8335 4.16639C36.4965 4.82943 36.869 5.72871 36.869 6.66639C36.869 7.60407 36.4965 8.50335 35.8335 9.16639L20.0002 24.9997L13.3335 26.6664L15.0002 19.9997L30.8335 4.16639Z"
          stroke="#e9ecef" stroke-width="2.5" stroke-linecap="round" stroke-linejoin="round"/>
</svg>
