<svg width="48" height="48" viewBox="0 0 48 48" fill="none" xmlns="http://www.w3.org/2000/svg">
<path d="M46.0005 38C46.0005 39.0609 45.5791 40.0783 44.8289 40.8284C44.0788 41.5786 43.0614 42 42.0005 42H6.00049C4.93962 42 3.92221 41.5786 3.17206 40.8284C2.42192 40.0783 2.00049 39.0609 2.00049 38V16C2.00049 14.9391 2.42192 13.9217 3.17206 13.1716C3.92221 12.4214 4.93962 12 6.00049 12H14.0005L18.0005 6H30.0005L34.0005 12H42.0005C43.0614 12 44.0788 12.4214 44.8289 13.1716C45.5791 13.9217 46.0005 14.9391 46.0005 16V38Z" stroke="#F9F9F9" stroke-width="2" stroke-linecap="round" stroke-linejoin="round"/>
<path d="M24.001 34C28.4193 34 32.001 30.4183 32.001 26C32.001 21.5817 28.4193 18 24.001 18C19.5827 18 16.001 21.5817 16.001 26C16.001 30.4183 19.5827 34 24.001 34Z" stroke="#F9F9F9" stroke-width="2" stroke-linecap="round" stroke-linejoin="round"/>
</svg>
