<svg width="40" height="40" viewBox="0 0 40 40" fill="none" xmlns="http://www.w3.org/2000/svg">
<path d="M5 10H35" stroke="#e9ecef" stroke-width="2.5" stroke-linecap="round" stroke-linejoin="round"/>
<path d="M13.3335 9.99967V6.66634C13.3335 5.78229 13.6847 4.93444 14.3098 4.30932C14.9349 3.6842 15.7828 3.33301 16.6668 3.33301H23.3335C24.2176 3.33301 25.0654 3.6842 25.6905 4.30932C26.3156 4.93444 26.6668 5.78229 26.6668 6.66634V9.99967M31.6668 9.99967V33.333C31.6668 34.2171 31.3156 35.0649 30.6905 35.69C30.0654 36.3152 29.2176 36.6663 28.3335 36.6663H11.6668C10.7828 36.6663 9.93493 36.3152 9.30981 35.69C8.68469 35.0649 8.3335 34.2171 8.3335 33.333V9.99967H31.6668Z" stroke="#e9ecef" stroke-width="2.5" stroke-linecap="round" stroke-linejoin="round"/>
<path d="M16.6665 18.333V28.333" stroke="#e9ecef" stroke-width="2.5" stroke-linecap="round" stroke-linejoin="round"/>
<path d="M23.3335 18.333V28.333" stroke="#e9ecef" stroke-width="2.5" stroke-linecap="round" stroke-linejoin="round"/>
</svg>
