<svg width="40" height="40" viewBox="0 0 40 40" fill="none" xmlns="http://www.w3.org/2000/svg">
    <g clip-path="url(#clip0_953_18052)">
        <g opacity="0.5">
            <path d="M38.3337 31.6667C38.3337 32.5507 37.9825 33.3986 37.3573 34.0237C36.7322 34.6488 35.8844 35 35.0003 35H5.00033C4.11627 35 3.26842 34.6488 2.6433 34.0237C2.01818 33.3986 1.66699 32.5507 1.66699 31.6667V13.3333C1.66699 12.4493 2.01818 11.6014 2.6433 10.9763C3.26842 10.3512 4.11627 10 5.00033 10H11.667L15.0003 5H25.0003L28.3337 10H35.0003C35.8844 10 36.7322 10.3512 37.3573 10.9763C37.9825 11.6014 38.3337 12.4493 38.3337 13.3333V31.6667Z"
                  stroke="#111111" stroke-width="2" stroke-linecap="round" stroke-linejoin="round"/>
            <path d="M20.0004 28.3333C23.6823 28.3333 26.6671 25.3486 26.6671 21.6667C26.6671 17.9848 23.6823 15 20.0004 15C16.3185 15 13.3337 17.9848 13.3337 21.6667C13.3337 25.3486 16.3185 28.3333 20.0004 28.3333Z"
                  stroke="#111" stroke-width="2" stroke-linecap="round" stroke-linejoin="round"/>
        </g>
    </g>
    <defs>
        <clipPath id="clip0_953_18052">
            <rect width="40" height="40" fill="white" transform="translate(0.000244141)"/>
        </clipPath>
    </defs>
</svg>
